<svg width="571" height="571" viewBox="0 0 571 571" fill="none" xmlns="http://www.w3.org/2000/svg">
<g clip-path="url(#clip0_25_1664)">
<path d="M570.5 436.436H0.5V436.721H570.5V436.436Z" fill="#E6E6E6"/>
<path d="M142.794 453.684H105.037V453.969H142.794V453.684Z" fill="#E6E6E6"/>
<path d="M93.0914 453.684H71.2148V453.969H93.0914V453.684Z" fill="#E6E6E6"/>
<path d="M240.527 457.879H218.65V458.164H240.527V457.879Z" fill="#E6E6E6"/>
<path d="M354.596 464.24H305.359V464.525H354.596V464.24Z" fill="#E6E6E6"/>
<path d="M295.212 464.24H287.996V464.525H295.212V464.24Z" fill="#E6E6E6"/>
<path d="M517.319 457.879H410.523V458.164H517.319V457.879Z" fill="#E6E6E6"/>
<path d="M270.691 385.592H50.568C46.977 385.592 44.0586 382.673 44.0586 379.082V69.652C44.0586 66.061 46.977 63.1426 50.568 63.1426H270.702C274.293 63.1426 277.211 66.061 277.211 69.652V379.082C277.2 382.673 274.282 385.592 270.691 385.592ZM50.568 63.4276C47.1366 63.4276 44.3436 66.2206 44.3436 69.652V379.082C44.3436 382.514 47.1366 385.307 50.568 385.307H270.702C274.133 385.307 276.926 382.514 276.926 379.082V69.652C276.926 66.2206 274.133 63.4276 270.702 63.4276H50.568Z" fill="#E6E6E6"/>
<path d="M517.272 385.592H297.138C293.547 385.592 290.629 382.673 290.629 379.082V69.652C290.629 66.061 293.547 63.1426 297.138 63.1426H517.272C520.863 63.1426 523.782 66.061 523.782 69.652V379.082C523.782 382.673 520.863 385.592 517.272 385.592ZM297.138 63.4276C293.707 63.4276 290.914 66.2206 290.914 69.652V379.082C290.914 382.514 293.707 385.307 297.138 385.307H517.272C520.704 385.307 523.497 382.514 523.497 379.082V69.652C523.497 66.2206 520.704 63.4276 517.272 63.4276H297.138Z" fill="#E6E6E6"/>
<path d="M305.334 339.057H280.266V438.499H305.334V339.057Z" fill="#E0E0E0"/>
<path d="M300.569 438.498H305.335V424.955H295.576L300.569 438.498Z" fill="#FAFAFA"/>
<path d="M195.485 339.057H170.416V438.499H195.485V339.057Z" fill="#E0E0E0"/>
<path d="M305.336 339.057H191.336V430.188H305.336V339.057Z" fill="#FAFAFA"/>
<path d="M301.197 343.536V367.647H195.463V343.536H301.197ZM301.642 343.092H195.029V368.081H301.642V343.092Z" fill="#E0E0E0"/>
<path d="M196.101 438.498H191.336V424.955H201.083L196.101 438.498Z" fill="#FAFAFA"/>
<path d="M245.816 355.586C245.816 356.977 246.945 358.105 248.336 358.105C249.727 358.105 250.855 356.977 250.855 355.586C250.855 354.195 249.727 353.066 248.336 353.066C246.945 353.066 245.816 354.195 245.816 355.586Z" fill="#E6E6E6"/>
<path d="M301.197 372.562V396.673H195.463V372.562H301.197ZM301.642 372.129H195.029V397.118H301.642V372.129Z" fill="#E0E0E0"/>
<path d="M245.816 384.623C245.816 386.014 246.945 387.142 248.336 387.142C249.727 387.142 250.855 386.014 250.855 384.623C250.855 383.232 249.727 382.104 248.336 382.104C246.945 382.104 245.816 383.232 245.816 384.623Z" fill="#E6E6E6"/>
<path d="M301.197 401.597V425.708H195.463V401.597H301.197ZM301.642 401.152H195.029V426.141H301.642V401.152Z" fill="#E0E0E0"/>
<path d="M245.816 413.658C245.816 415.049 246.945 416.178 248.336 416.178C249.727 416.178 250.855 415.049 250.855 413.658C250.855 412.267 249.727 411.139 248.336 411.139C246.945 411.127 245.816 412.267 245.816 413.658Z" fill="#E6E6E6"/>
<path d="M180.176 281.305H155.107V438.511H180.176V281.305Z" fill="#E0E0E0"/>
<path d="M175.411 438.498H180.176V424.955H170.418L175.411 438.498Z" fill="#FAFAFA"/>
<path d="M86.4905 281.305H61.4219V438.511H86.4905V281.305Z" fill="#E0E0E0"/>
<path d="M180.176 281.305H82.3301V430.2H180.176V281.305Z" fill="#FAFAFA"/>
<path d="M175.958 285.511V319.221H86.5478V285.511H175.958ZM176.482 284.998H86.0234V319.745H176.482V284.998Z" fill="#E0E0E0"/>
<path d="M175.957 323.325V412.747H133.367V323.325H175.957ZM176.481 322.801H132.854V413.26H176.481V322.801Z" fill="#E0E0E0"/>
<path d="M129.138 323.325V412.747H86.5478V323.325H129.138ZM129.651 322.801H86.0234V413.26H129.651V322.801Z" fill="#E0E0E0"/>
<path d="M87.0953 438.498H82.3301V424.955H92.0885L87.0953 438.498Z" fill="#FAFAFA"/>
<path d="M128.727 302.371C128.727 303.762 129.855 304.89 131.246 304.89C132.637 304.89 133.765 303.762 133.765 302.371C133.765 300.98 132.637 299.852 131.246 299.852C129.855 299.852 128.727 300.98 128.727 302.371Z" fill="#E6E6E6"/>
<path d="M137.756 365.904C137.756 367.295 138.884 368.424 140.275 368.424C141.666 368.424 142.795 367.295 142.795 365.904C142.795 364.513 141.666 363.385 140.275 363.385C138.884 363.373 137.756 364.502 137.756 365.904Z" fill="#E6E6E6"/>
<path d="M119.711 365.904C119.711 367.295 120.84 368.424 122.23 368.424C123.621 368.424 124.75 367.295 124.75 365.904C124.75 364.513 123.621 363.385 122.23 363.385C120.84 363.373 119.711 364.502 119.711 365.904Z" fill="#E6E6E6"/>
<path d="M116.861 237.471H106.293C106.293 237.471 108.128 247.241 108.128 252.998C108.128 258.755 100.08 281.304 111.583 281.304C123.074 281.304 115.037 258.755 115.037 252.998C115.025 247.241 116.861 237.471 116.861 237.471Z" fill="#E0E0E0"/>
<path d="M76.6523 260.59V267.464C76.6523 275.079 82.8767 281.304 90.4919 281.304H97.3661C104.981 281.304 111.206 275.079 111.206 267.464V260.59H76.6523Z" fill="#F5F5F5"/>
<path d="M223.564 324.557C223.564 332.525 232.491 339.046 243.4 339.046H253.25C264.16 339.046 273.086 332.525 273.086 324.557H223.564Z" fill="#E0E0E0"/>
<path d="M484.555 312.894C478.582 317.773 470.339 326.699 462.781 339.262C457.754 347.63 454.721 356.396 453.388 367.979C453.422 354.869 453.456 340.79 453.502 327.497C455.018 324.077 458.483 316.189 460.969 309.964C469.268 289.182 472.357 284.075 479.813 266.143C489.765 242.237 499.957 213.862 497.038 216.131C491.087 220.748 468.287 263.441 465.825 269.563C457.343 290.584 454.984 305.906 453.524 320.692C453.57 308.209 453.616 296.74 453.661 287.894C453.809 259.04 454.3 249.727 454.539 246.854C455.462 245.395 456.545 243.696 457.184 242.773C462.542 235.032 464.605 228.431 469.655 216.883C476.803 200.513 482.971 171.454 481.169 172.925C473.668 179.024 467.763 192.145 459.988 208.869C452.213 225.581 454.436 235.203 452.897 249.476C452.578 252.28 452.327 262.848 452.145 277.508C450.127 261.89 446.354 251.608 439.457 242.26C430.975 230.757 422.767 222.994 416.748 218.935C410.729 214.877 427.145 243.126 435 255.461C441.988 266.439 448.429 276.129 452.065 285.671C451.871 305.53 451.78 330.678 451.78 354.094C449.979 343.435 447.038 331.966 443.116 323.086C438.397 312.415 431.146 296.045 425.378 290.482C423.987 289.148 431.42 320.988 436.185 329.458C440.95 337.928 444.45 345.908 447.448 350.708C448.144 351.825 450.469 356.146 451.792 358.631C451.803 387.211 451.951 412.427 452.202 421.012H453.433C453.353 418.8 453.331 404.254 453.365 385.01C456.34 374.568 463.135 362.644 468.755 351.768C474.865 339.878 490.529 308.015 484.555 312.894Z" fill="#E0E0E0"/>
<path d="M470.681 438.499H434.954L432.252 403.479H473.383L470.681 438.499Z" fill="#F0F0F0"/>
<path d="M476.039 407.56H429.595L428.262 395.738H477.373L476.039 407.56Z" fill="#F5F5F5"/>
<path d="M142.157 86.5703H78.2598V156.737H142.157V86.5703Z" fill="#E0E0E0"/>
<path d="M149.076 86.5703H83.0703V156.737H149.076V86.5703Z" fill="#F5F5F5"/>
<path d="M143.553 151.209V92.0996H88.6047V151.209H143.553Z" fill="white"/>
<path d="M130.225 136.867V106.418H101.918V136.867H130.225Z" fill="#F5F5F5"/>
<path d="M467.957 94.7441H408.598V159.929H467.957V94.7441Z" fill="#E0E0E0"/>
<path d="M474.387 94.7441H413.078V159.929H474.387V94.7441Z" fill="#F5F5F5"/>
<path d="M469.256 154.802V99.8887H418.218V154.802H469.256Z" fill="white"/>
<path d="M443.732 143.262C452.528 143.262 459.658 136.132 459.658 127.336C459.658 118.54 452.528 111.41 443.732 111.41C434.937 111.41 427.807 118.54 427.807 127.336C427.807 136.132 434.937 143.262 443.732 143.262Z" fill="#F5F5F5"/>
<path d="M208.538 128.408H161.137V180.461H208.538V128.408Z" fill="#E0E0E0"/>
<path d="M213.668 128.408H164.705V180.461H213.668V128.408Z" fill="#F5F5F5"/>
<path d="M209.568 176.354V132.51H168.813V176.354H209.568Z" fill="white"/>
<path d="M189.192 143.342L178.043 162.653H200.341L189.192 143.342Z" fill="#F5F5F5"/>
<path d="M285.499 487.919C407.573 487.919 506.534 482.141 506.534 475.014C506.534 467.887 407.573 462.109 285.499 462.109C163.425 462.109 64.4648 467.887 64.4648 475.014C64.4648 482.141 163.425 487.919 285.499 487.919Z" fill="#F5F5F5"/>
<path d="M398.645 186.811L387.336 182.229C387.336 182.229 372.413 209.44 368.138 210.82C362.324 212.689 350.297 217.888 343.149 218.857C342.18 219.985 340.596 223.531 340.744 224.83C350.331 228.022 371.399 223.782 375.913 220.43C386.185 212.792 398.645 186.811 398.645 186.811Z" fill="#E58A7B"/>
<path d="M402.121 180.643C404.23 188.44 392.807 204.104 392.807 204.104L377.805 195.691C377.805 195.691 380.598 189.25 384.029 182.695C389.547 172.093 399.715 171.739 402.121 180.643Z" fill="#23A455"/>
<path opacity="0.2" d="M402.121 180.643C404.23 188.44 392.807 204.104 392.807 204.104L377.805 195.691C377.805 195.691 380.598 189.25 384.029 182.695C389.547 172.093 399.715 171.739 402.121 180.643Z" fill="black"/>
<path opacity="0.2" d="M383.779 199.032L389.673 202.338L390.699 184.246C387.279 186.879 384.862 194.814 383.779 199.032Z" fill="black"/>
<path d="M392.271 174.761C392.271 174.761 380.62 200.685 387.415 248.952C401.243 248.952 426.597 248.952 433.323 248.952C434.052 241.907 431.635 207.525 440.379 174.328C440.379 174.328 432.604 172.743 425.126 172.39C419.278 172.105 410.796 171.922 405.609 172.39C398.781 173.005 392.271 174.761 392.271 174.761Z" fill="#23A455"/>
<path opacity="0.2" d="M392.271 174.761C392.271 174.761 380.62 200.685 387.415 248.952C401.243 248.952 426.597 248.952 433.323 248.952C434.052 241.907 431.635 207.525 440.379 174.328C440.379 174.328 432.604 172.743 425.126 172.39C419.278 172.105 410.796 171.922 405.609 172.39C398.781 173.005 392.271 174.761 392.271 174.761Z" fill="black"/>
<path d="M381.623 476.04C381.555 477.26 398.963 478.251 420.497 478.251C442.032 478.251 459.565 477.26 459.633 476.04C459.702 474.82 442.305 473.828 420.759 473.828C399.225 473.828 381.703 474.82 381.623 476.04Z" fill="#E8ECF1"/>
<path d="M413.341 445.282L405.172 448.43L412.176 466.609L420.345 463.461L413.341 445.282Z" fill="#E58A7B"/>
<path d="M448.576 467.273H439.992L436.846 447.402H445.43L448.576 467.273Z" fill="#E58A7B"/>
<path d="M439.445 466.281H449.089C449.443 466.281 449.728 466.521 449.785 466.863L451.027 474.489C451.153 475.276 450.491 476.028 449.682 476.017C446.319 475.96 444.7 475.766 440.459 475.766C437.849 475.766 432.457 476.04 428.854 476.04C425.332 476.04 424.99 472.483 426.483 472.152C433.186 470.704 435.785 468.709 438.02 466.806C438.419 466.464 438.932 466.281 439.445 466.281Z" fill="#23A455"/>
<path d="M410.865 463.284L420.008 460.628C420.35 460.525 420.703 460.674 420.851 460.981L424.237 467.821C424.59 468.528 424.169 469.417 423.382 469.634C420.076 470.535 417.842 471.105 413.692 472.313C410.831 473.145 407.912 474.502 405.085 475.402C403.124 476.029 398.519 476.052 396.136 476.052C392.613 476.052 391.827 472.336 393.332 472.165C397.151 471.732 397.664 471.937 399.773 470.877C403.261 469.121 405.963 467.673 408.984 464.515C409.531 463.957 410.147 463.489 410.865 463.284Z" fill="#23A455"/>
<path d="M344.586 218.775L335.147 214.797L331.26 225.262C331.26 225.262 336.709 226.254 342.933 225.262L344.586 218.775Z" fill="#E58A7B"/>
<path d="M328.124 214.547L327.873 221.501L331.259 225.263L335.146 214.798L328.124 214.547Z" fill="#E58A7B"/>
<path d="M413.367 445.259L405.199 448.412L408.816 457.782L416.984 454.629L413.367 445.259Z" fill="#CF6F64"/>
<path d="M445.43 447.402H436.846L438.476 457.651H447.06L445.43 447.402Z" fill="#CF6F64"/>
<path opacity="0.2" d="M385.955 235.9C386.115 237.963 386.32 240.072 386.559 242.238L420.691 231.157C426.026 229.561 430.655 226.21 433.824 221.638C433.949 218.594 434.132 215.391 434.382 212.051C434.496 210.421 434.645 208.756 434.793 207.069C434.952 205.313 435.146 203.524 435.351 201.711L385.955 235.9Z" fill="black"/>
<path d="M397.106 198.507L395.943 198.37C396.616 192.682 400.868 188.19 405.348 188.293L405.314 189.467C401.45 189.353 397.71 193.4 397.106 198.507Z" fill="white"/>
<path d="M403.182 209.029C403.114 209.029 403.057 209.029 402.988 209.029L403.022 207.855C406.944 208.003 410.626 203.91 411.23 198.814L412.393 198.951C411.732 204.56 407.617 209.029 403.182 209.029Z" fill="white"/>
<path d="M424.487 150.41C422.891 156.692 420.987 168.194 425.137 172.389C425.137 172.389 422.241 178.762 410.568 178.762C399.909 178.762 405.62 172.389 405.62 172.389C412.722 170.714 412.848 165.527 411.913 160.647L424.487 150.41Z" fill="#E58A7B"/>
<path d="M419.358 154.582L411.914 160.635C412.142 161.787 412.302 162.961 412.313 164.101C414.49 166.267 418.857 160.784 419.301 157.979C419.529 156.577 419.552 155.232 419.358 154.582Z" fill="#CF6F64"/>
<path d="M399.112 150.33C400.207 152.279 402.133 153.499 403.946 153.91C406.682 154.514 408.061 152.006 407.309 149.463C406.625 147.183 404.391 144.117 401.632 144.641C398.93 145.154 397.87 148.095 399.112 150.33Z" fill="#CF6F64"/>
<path d="M403.638 130.233C399.374 132.183 397.869 149.123 403.227 151.631C408.585 154.128 411.709 126.528 403.638 130.233Z" fill="#263238"/>
<path d="M425.787 140.96C424.761 149.464 424.601 154.469 420.053 158.824C413.213 165.39 402.941 161.491 401.414 153.01C400.034 145.372 401.938 132.752 410.454 129.366C418.844 126.037 426.802 132.455 425.787 140.96Z" fill="#E58A7B"/>
<path d="M411.777 134.633C418.081 133.014 422.721 131.92 421.068 137.187C418.856 144.198 416.211 150.992 419.768 151.311C421.923 151.505 431.51 147.435 430.29 143.331C429.23 139.752 433.688 138.783 434.508 136.959C437.461 130.381 429.014 131.236 430.518 127.257C431.978 123.381 423.713 116.838 419.13 120.041C411.708 125.217 398.975 125.148 405.666 116.655C410.466 110.579 401.904 111.822 401.904 111.822C401.904 111.822 407.08 114.888 398.37 119.631C389.148 124.669 397.595 138.27 411.777 134.633Z" fill="#263238"/>
<path d="M429.083 150.33C427.761 152.279 425.697 153.499 423.828 153.91C421.023 154.514 419.94 152.006 420.989 149.463C421.935 147.183 424.534 144.117 427.225 144.641C429.87 145.154 430.588 148.095 429.083 150.33Z" fill="#E58A7B"/>
<path d="M387.415 248.951C387.415 248.951 379.709 317.921 379.105 344.096C378.478 371.319 405.222 456.26 405.222 456.26L418.913 450.515C418.913 450.515 402.976 372.915 405.188 346.17C407.605 317.021 417.591 248.951 417.591 248.951H387.415Z" fill="#263238"/>
<path opacity="0.2" d="M406.567 267.887C400.433 280.632 404.56 305.826 407.889 320.771C409.154 310.226 410.659 298.781 412.084 288.19C411.947 271.911 410.682 259.337 406.567 267.887Z" fill="black"/>
<path d="M418.298 446.047C418.367 446.024 419.917 450.413 419.917 450.413L404.139 457.037L401.654 452.408L418.298 446.047Z" fill="black"/>
<path d="M403.705 248.951C403.705 248.951 409.599 314.547 413.509 339.114C417.784 366.029 434.599 455.667 434.599 455.667H450.32C450.32 455.667 440.903 368.207 439.125 341.553C437.198 312.632 433.345 248.951 433.345 248.951H403.705Z" fill="#263238"/>
<path d="M450.548 451.576C450.616 451.576 451.072 455.965 451.072 455.965H433.79L432.559 450.926L450.548 451.576Z" fill="black"/>
<path opacity="0.2" d="M444.529 446.376C444.449 446.376 444.392 446.319 444.381 446.251C444.29 445.453 435.797 366.485 434.201 342.557C432.468 316.576 428.98 258.983 428.945 258.402C428.945 258.322 429.002 258.254 429.082 258.242H429.094C429.173 258.242 429.23 258.299 429.242 258.379C429.276 258.96 432.764 316.553 434.497 342.534C436.093 366.462 444.586 445.43 444.677 446.217C444.689 446.297 444.632 446.365 444.552 446.376C444.541 446.376 444.529 446.376 444.529 446.376Z" fill="black"/>
<path d="M412.746 143.33C412.7 144.026 412.301 144.584 411.857 144.584C411.401 144.584 411.07 144.026 411.116 143.33C411.161 142.635 411.56 142.076 412.005 142.076C412.461 142.076 412.791 142.646 412.746 143.33Z" fill="#263238"/>
<path d="M404.925 143.33C404.88 144.026 404.481 144.584 404.036 144.584C403.592 144.584 403.249 144.026 403.295 143.33C403.341 142.635 403.74 142.076 404.184 142.076C404.629 142.076 404.971 142.646 404.925 143.33Z" fill="#263238"/>
<path d="M407.388 143.684C407.388 143.684 405.575 147.674 403.729 149.6C404.891 150.74 407 150.216 407 150.216L407.388 143.684Z" fill="#DF5753"/>
<path d="M407.594 153.123C407.48 153.123 407.4 153.032 407.4 152.918C407.412 152.804 407.503 152.713 407.617 152.713C410.661 152.713 412.2 150.592 412.211 150.57C412.28 150.478 412.405 150.444 412.496 150.513C412.587 150.57 412.61 150.695 412.542 150.798C412.473 150.889 410.855 153.123 407.594 153.123Z" fill="#263238"/>
<path d="M414.137 141.233C414.023 141.279 413.886 141.267 413.784 141.199C412.29 140.253 410.888 140.891 410.877 140.891C410.683 140.994 410.432 140.902 410.341 140.697C410.261 140.492 410.352 140.253 410.569 140.15C410.637 140.116 412.393 139.318 414.24 140.492C414.422 140.606 414.468 140.857 414.342 141.051C414.297 141.142 414.228 141.199 414.137 141.233Z" fill="#263238"/>
<path d="M401.904 138.954C401.847 138.942 401.79 138.908 401.745 138.863C401.585 138.714 401.585 138.452 401.745 138.293C403.341 136.617 405.176 136.868 405.256 136.879C405.472 136.902 405.621 137.118 405.575 137.346C405.529 137.563 405.313 137.723 405.096 137.688C405.039 137.677 403.591 137.495 402.326 138.84C402.212 138.954 402.041 138.999 401.904 138.954Z" fill="#263238"/>
<path d="M444.792 185.545L432.936 182.387C432.936 182.387 421.308 211.012 417.204 212.882C411.618 215.424 397.459 224.225 391.451 228.466C391.121 229.879 391.383 233.664 392.135 234.69C402.361 232.832 422.037 225.262 426.141 221.42C435.489 212.654 444.792 185.545 444.792 185.545Z" fill="#E58A7B"/>
<path d="M436.515 467.786C435.866 467.786 435.261 467.672 434.885 467.353C434.589 467.091 434.475 466.737 434.532 466.281C434.577 465.939 434.76 465.78 434.908 465.711C435.877 465.221 438.556 466.92 438.852 467.125C438.921 467.171 438.955 467.25 438.932 467.33C438.909 467.41 438.852 467.478 438.773 467.49C438.18 467.615 437.313 467.786 436.515 467.786ZM435.341 466.008C435.239 466.008 435.147 466.019 435.079 466.053C435.022 466.088 434.954 466.133 434.942 466.293C434.908 466.612 434.976 466.863 435.17 467.034C435.615 467.433 436.732 467.478 438.203 467.193C437.268 466.623 436.002 466.008 435.341 466.008Z" fill="#263238"/>
<path d="M438.726 467.479C438.692 467.479 438.658 467.468 438.635 467.457C437.78 466.978 436.173 465.097 436.401 464.139C436.446 463.968 436.583 463.66 437.085 463.603C437.404 463.569 437.689 463.649 437.94 463.866C438.886 464.675 438.954 467.16 438.954 467.263C438.954 467.343 438.92 467.411 438.852 467.445C438.806 467.468 438.772 467.479 438.726 467.479ZM437.199 464.002C437.165 464.002 437.142 464.002 437.108 464.014C436.845 464.048 436.811 464.173 436.8 464.219C436.663 464.789 437.666 466.203 438.51 466.875C438.453 466.146 438.259 464.709 437.655 464.185C437.518 464.059 437.37 464.002 437.199 464.002Z" fill="#263238"/>
<path d="M406.248 466.361C405.405 466.566 404.607 466.623 404.094 466.349C403.763 466.178 403.581 465.882 403.535 465.483C403.512 465.243 403.592 465.038 403.763 464.879C404.686 464.058 408.403 464.936 408.825 465.038C408.904 465.061 408.961 465.129 408.973 465.221C408.973 465.312 408.927 465.392 408.847 465.426C408.152 465.734 407.172 466.133 406.248 466.361ZM404.39 465.004C404.23 465.038 404.116 465.095 404.025 465.164C403.957 465.232 403.923 465.3 403.934 465.403C403.968 465.677 404.082 465.859 404.299 465.984C404.903 466.315 406.305 466.053 408.118 465.3C406.852 465.038 405.188 464.81 404.39 465.004Z" fill="#263238"/>
<path d="M408.812 465.438C408.79 465.449 408.755 465.449 408.733 465.438C407.627 465.233 405.267 463.922 405.244 462.941C405.244 462.713 405.347 462.394 405.883 462.212C406.27 462.064 406.681 462.098 407.057 462.28C408.299 462.896 408.938 465.085 408.972 465.176C408.995 465.244 408.972 465.324 408.926 465.37C408.892 465.404 408.847 465.427 408.812 465.438ZM406.111 462.554C406.076 462.565 406.031 462.577 405.997 462.588C405.643 462.713 405.643 462.862 405.643 462.907C405.655 463.5 407.296 464.583 408.448 464.948C408.22 464.321 407.661 463.044 406.852 462.645C406.612 462.52 406.361 462.497 406.111 462.554Z" fill="#263238"/>
<path d="M392.408 227.783L380.518 233.255L379.139 236.607L383.528 239.559C383.528 239.559 391.724 238.67 394.061 233.403L392.408 227.783Z" fill="#E58A7B"/>
<path d="M392.911 234.884C392.17 230.472 390.711 228.454 390.699 228.431L392.569 227.029C392.637 227.12 394.37 229.457 395.214 234.496L392.911 234.884Z" fill="#263238"/>
<path d="M394.94 229.4C395.327 230.358 394.7 231.509 393.56 231.965C392.409 232.433 391.166 232.034 390.779 231.076C390.391 230.118 391.018 228.967 392.158 228.511C393.31 228.055 394.552 228.443 394.94 229.4Z" fill="#263238"/>
<path d="M372.48 237.677L374.065 239.273L384.735 234.713L380.517 233.254L372.48 237.677Z" fill="#E58A7B"/>
<path d="M447.88 182.261C451.015 192.373 438.806 206.179 438.806 206.179L421.877 199.27C421.877 199.27 424.26 191.929 428.797 182.09C433.961 170.907 444.711 172.058 447.88 182.261Z" fill="#23A455"/>
<path opacity="0.2" d="M447.88 182.261C451.015 192.373 438.806 206.179 438.806 206.179L421.877 199.27C421.877 199.27 424.26 191.929 428.797 182.09C433.961 170.907 444.711 172.058 447.88 182.261Z" fill="black"/>
<path d="M373.963 127.411L373.082 146.977L374.255 147.029L375.136 127.464L373.963 127.411Z" fill="#23A455"/>
<path d="M371.695 86.2168H237.175L224.658 366.338H359.178L371.695 86.2168Z" fill="#8CCDA7"/>
<path d="M223.259 367.68L235.553 92.5703H365.068L352.774 367.68H223.259Z" fill="white" stroke="#455A64" stroke-width="5"/>
<path d="M233.103 237.018L234.016 216.586H347.836L346.923 237.018H233.103Z" stroke="#EDEDED"/>
<path d="M296.683 200.445H234.234L233.812 210.033H296.262L296.683 200.445Z" fill="#23A455"/>
<path d="M230.515 294.873L231.428 274.43H345.248L344.335 294.873H230.515Z" stroke="#EDEDED"/>
<path opacity="0.47" d="M324.715 324.307H247.503L246.352 349.991H323.564L324.715 324.307Z" fill="#23A455"/>
<path d="M319.55 353.981H242.338C242.304 353.981 242.27 353.969 242.235 353.935C242.213 353.912 242.201 353.867 242.201 353.833L243.353 328.137C243.353 328.069 243.421 328.012 243.489 328.012H320.702C320.736 328.012 320.77 328.023 320.804 328.057C320.827 328.08 320.838 328.126 320.838 328.16L319.687 353.855C319.676 353.924 319.619 353.981 319.55 353.981ZM242.475 353.707H319.413L320.553 328.285H243.615L242.475 353.707Z" fill="white"/>
<path d="M283.197 258.289H231.646L231.225 267.888H282.764L283.197 258.289Z" fill="#23A455"/>
<path d="M323.244 146.853C322.959 153.271 320.634 159.199 316.906 164.01C311.274 171.306 302.451 176.049 292.738 176.049C283.025 176.049 274.635 171.306 269.664 164.01C266.37 159.199 264.569 153.271 264.854 146.853C265.572 130.722 279.229 117.646 295.349 117.646C311.468 117.646 323.963 130.722 323.244 146.853Z" fill="white"/>
<path d="M325.993 123.758C325.913 125.468 325.297 127.041 324.306 128.318C322.812 130.256 320.464 131.521 317.887 131.521C315.311 131.521 313.077 130.256 311.754 128.318C310.876 127.041 310.398 125.468 310.477 123.758C310.671 119.471 314.296 115.994 318.583 115.994C322.858 116.006 326.175 119.471 325.993 123.758Z" fill="#23A455"/>
<path d="M245.907 226.802C245.827 228.695 244.219 230.234 242.316 230.234C240.423 230.234 238.953 228.695 239.032 226.802C239.112 224.91 240.72 223.371 242.623 223.371C244.516 223.371 245.986 224.899 245.907 226.802Z" fill="#263238"/>
<path d="M261.274 226.802C261.194 228.695 259.587 230.234 257.683 230.234C255.79 230.234 254.32 228.695 254.4 226.802C254.479 224.91 256.087 223.371 257.991 223.371C259.894 223.371 261.365 224.899 261.274 226.802Z" fill="#263238"/>
<path d="M276.653 226.802C276.573 228.695 274.965 230.234 273.062 230.234C271.169 230.234 269.699 228.695 269.778 226.802C269.858 224.91 271.466 223.371 273.369 223.371C275.273 223.371 276.732 224.899 276.653 226.802Z" fill="#263238"/>
<path d="M243.319 284.644C243.239 286.537 241.632 288.076 239.728 288.076C237.835 288.076 236.365 286.537 236.445 284.644C236.524 282.752 238.132 281.213 240.035 281.213C241.928 281.213 243.398 282.752 243.319 284.644Z" fill="#263238"/>
<path d="M258.686 284.644C258.606 286.537 256.999 288.076 255.095 288.076C253.202 288.076 251.732 286.537 251.812 284.644C251.891 282.752 253.499 281.213 255.403 281.213C257.307 281.213 258.777 282.752 258.686 284.644Z" fill="#263238"/>
<path d="M274.065 284.644C273.985 286.537 272.378 288.076 270.474 288.076C268.581 288.076 267.111 286.537 267.191 284.644C267.27 282.752 268.878 281.213 270.782 281.213C272.685 281.213 274.156 282.752 274.065 284.644Z" fill="#263238"/>
<path d="M289.444 284.644C289.364 286.537 287.757 288.076 285.853 288.076C283.96 288.076 282.49 286.537 282.57 284.644C282.649 282.752 284.257 281.213 286.161 281.213C288.053 281.213 289.524 282.752 289.444 284.644Z" fill="#263238"/>
<path d="M304.823 284.644C304.743 286.537 303.135 288.076 301.232 288.076C299.339 288.076 297.869 286.537 297.948 284.644C298.028 282.752 299.636 281.213 301.539 281.213C303.432 281.213 304.902 282.752 304.823 284.644Z" fill="#263238"/>
<path d="M302.543 145.353C307.314 140.687 307.568 133.208 303.109 128.648C298.651 124.088 291.168 124.174 286.396 128.839C281.624 133.505 281.37 140.984 285.829 145.544C290.288 150.104 297.771 150.019 302.543 145.353Z" fill="#23A455"/>
<path d="M316.894 164.009C311.262 171.305 302.439 176.048 292.726 176.048C283.013 176.048 274.623 171.305 269.652 164.009C275.193 158.492 283.959 154.912 293.672 154.912C303.396 154.912 311.844 158.492 316.894 164.009Z" fill="#23A455"/>
<path opacity="0.1" d="M302.543 145.353C307.314 140.687 307.568 133.208 303.109 128.648C298.651 124.088 291.168 124.174 286.396 128.839C281.624 133.505 281.37 140.984 285.829 145.544C290.288 150.104 297.771 150.019 302.543 145.353Z" fill="white"/>
<path opacity="0.1" d="M316.894 164.009C311.262 171.305 302.439 176.048 292.726 176.048C283.013 176.048 274.623 171.305 269.652 164.009C275.193 158.492 283.959 154.912 293.672 154.912C303.396 154.912 311.844 158.492 316.894 164.009Z" fill="white"/>
<path d="M149.168 242.68C148.085 245.051 146.957 247.651 145.953 250.193C144.95 252.758 143.947 255.323 143.069 257.933C141.371 263.143 139.775 268.399 138.999 273.665L138.737 275.341C138.715 275.546 138.737 275.831 138.817 276.196C138.988 276.926 139.433 277.895 140.071 278.841C141.359 280.768 143.172 282.717 145.133 284.518C147.094 286.354 149.214 288.109 151.426 289.785C153.614 291.472 155.917 293.114 158.174 294.653L156.054 298.654C150.628 296.283 145.577 293.444 140.687 289.888C138.281 288.052 135.91 286.08 133.801 283.412C132.764 282.067 131.749 280.551 131.077 278.545C130.757 277.541 130.529 276.413 130.529 275.193C130.541 274.908 130.552 274.52 130.575 274.327L130.632 273.757L130.746 272.628C131.361 266.586 132.707 260.772 134.474 255.14C135.363 252.325 136.309 249.543 137.392 246.807C138.498 244.06 139.592 241.415 140.972 238.645L149.168 242.68Z" fill="#E58A7B"/>
<path d="M156.579 293.97L164.639 289.889L162.553 298.746C162.553 298.746 157.024 300.297 154.447 297.606L156.579 293.97Z" fill="#E58A7B"/>
<path d="M172.015 291.336L169.872 298.655L162.553 298.735L164.639 289.889L172.015 291.336Z" fill="#E58A7B"/>
<path d="M183.391 200C183.391 200 184.086 202.565 185.192 204.503C184.234 205.392 183.391 205.084 183.391 205.084V200Z" fill="#DF5753"/>
<path d="M183.152 200.067C183.624 200.067 184.007 199.48 184.007 198.756C184.007 198.032 183.624 197.445 183.152 197.445C182.68 197.445 182.297 198.032 182.297 198.756C182.297 199.48 182.68 200.067 183.152 200.067Z" fill="#263238"/>
<path d="M182.947 197.492L184.68 196.99C184.68 197.002 183.791 198.347 182.947 197.492Z" fill="#263238"/>
<path d="M161.126 208.367C162.164 213.68 163.201 223.404 159.496 226.938C159.496 226.938 160.944 232.319 170.805 232.319C181.646 232.319 175.992 226.938 175.992 226.938C170.075 225.524 170.223 221.135 171.261 217.008L161.126 208.367Z" fill="#E58A7B"/>
<path d="M158.242 196.282C158.79 205.14 158.824 208.902 163.304 213.451C170.03 220.291 180.803 217.68 182.912 208.845C184.816 200.888 183.607 187.732 174.932 184.21C166.393 180.733 157.707 187.425 158.242 196.282Z" fill="#E58A7B"/>
<path d="M159.121 186.262C154.675 187.881 148.747 186.672 151.072 200.386C153.535 214.91 149.75 219.687 149.75 219.687C149.75 219.687 166.611 223.278 183.825 219.47C183.825 219.47 178.569 210.282 180.04 203.578C181.921 195.028 180.427 191.859 180.427 191.859C180.427 191.859 165.368 183.982 159.121 186.262Z" fill="#263238"/>
<path d="M177.93 200.9C177.908 202.656 178.523 204.423 179.321 205.654C180.518 207.501 181.943 206.748 182.308 204.833C182.627 203.112 182.388 200.068 180.849 198.882C179.344 197.72 177.953 198.894 177.93 200.9Z" fill="#E58A7B"/>
<path d="M155.256 187.813C153.979 184.233 160.067 178.716 172.949 181.007C185.831 183.298 186.39 194.014 186.39 194.014L183.779 190.925L183.893 194.185L170.658 196.728L155.256 187.813Z" fill="#263238"/>
<path d="M156.35 227.541C156.167 226.447 156.908 225.41 158.003 225.239C162.016 224.577 171.124 223.232 175.718 223.871C179.127 224.338 180.028 226.333 180.176 227.963C180.278 229.172 179.287 230.186 178.078 230.129L158.254 229.229C157.296 229.183 156.509 228.476 156.35 227.541Z" fill="#23A455"/>
<path opacity="0.6" d="M156.35 227.541C156.167 226.447 156.908 225.41 158.003 225.239C162.016 224.577 171.124 223.232 175.718 223.871C179.127 224.338 180.028 226.333 180.176 227.963C180.278 229.172 179.287 230.186 178.078 230.129L158.254 229.229C157.296 229.183 156.509 228.476 156.35 227.541Z" fill="black"/>
<path d="M167.807 426.7L175.16 431.807L187.46 415.129L180.107 410.033L167.807 426.7Z" fill="#E58A7B"/>
<path d="M150.662 426.37L158.426 430.793L169.313 413.158L161.549 408.734L150.662 426.37Z" fill="#E58A7B"/>
<path d="M187.449 415.129L181.111 423.725L173.758 418.629L180.108 410.033L187.449 415.129Z" fill="#CF6F64"/>
<path d="M161.537 408.734L169.311 413.169L163.703 422.255L155.928 417.82L161.537 408.734Z" fill="#CF6F64"/>
<path d="M174.009 283.209C174.009 283.209 202.714 319.393 197.333 353.98C192.978 381.922 167.796 419.758 167.796 419.758L155.951 413.876C155.951 413.876 168.822 388.727 177.269 362.074C180.815 350.891 179.298 338.579 172.675 328.9C158.129 307.662 134.838 320.293 150.513 283.209H174.009Z" fill="#263238"/>
<path opacity="0.4" d="M188.088 306.452L183.916 302.303C183.916 302.633 191.999 352.52 194.267 366.542C195.635 362.244 196.695 358.003 197.322 353.968C199.967 337.039 194.427 319.711 188.088 306.452Z" fill="black"/>
<path d="M186.823 283.209C186.823 283.209 221.388 328.672 222.357 355.93C223.167 378.775 184.703 422.905 184.703 422.905L173.531 415.677C173.531 415.677 196.023 384.304 201.689 358.666C199.534 333.278 153.193 283.209 153.193 283.209H186.823Z" fill="#263238"/>
<path d="M144.061 228.967C140.356 229.845 136.822 243.274 136.822 243.274L151.255 252.907C151.255 252.907 156.065 242.283 154.39 237.631C152.645 232.798 148.735 227.862 144.061 228.967Z" fill="#23A455"/>
<path opacity="0.2" d="M146.888 237.607L145.885 249.315L151.254 252.918C151.254 252.918 153.774 247.354 154.526 242.498L146.888 237.607Z" fill="black"/>
<path d="M191.097 229.229C191.097 229.229 195.361 230.734 186.822 283.208C172.412 283.208 157.513 283.208 150.502 283.208C151.106 268.423 151.129 259.314 144.061 228.967C144.061 228.967 151.676 227.314 159.485 226.938C165.595 226.642 170.6 226.448 175.981 226.938C183.071 227.588 191.097 229.229 191.097 229.229Z" fill="#23A455"/>
<path d="M194.792 237.563C195.613 239.843 196.491 242.294 197.391 244.665C198.258 247.059 199.17 249.453 200.093 251.836L202.886 258.995L203.593 260.785L203.946 261.674L204.129 262.118C204.163 262.198 204.151 262.187 204.14 262.187C204.094 262.164 204.049 261.936 203.342 261.48C203 261.263 202.419 261.058 201.849 261.047C201.29 261.024 200.834 261.161 200.583 261.275C200.07 261.525 200.059 261.628 200.07 261.605C200.104 261.594 200.207 261.491 200.321 261.343C200.823 260.75 201.415 259.713 201.951 258.687C202.487 257.638 203 256.521 203.513 255.392C204.516 253.124 205.44 250.753 206.374 248.37C207.298 245.987 208.164 243.571 209.031 241.142L211.63 233.869L216.019 234.975C215.152 240.185 214.024 245.281 212.69 250.388C212.04 252.953 211.276 255.495 210.41 258.06C209.977 259.348 209.498 260.625 208.939 261.936C208.358 263.258 207.788 264.546 206.773 266.063C206.511 266.45 206.203 266.849 205.782 267.294C205.337 267.727 204.813 268.263 203.707 268.764C203.148 269.004 202.384 269.209 201.495 269.175C200.606 269.152 199.717 268.833 199.09 268.445C197.824 267.636 197.391 266.872 197.015 266.291C196.844 266.006 196.696 265.698 196.593 265.493L196.377 265.048L195.943 264.159L195.077 262.392C193.948 260.021 192.843 257.638 191.805 255.221C190.768 252.805 189.765 250.376 188.784 247.925C187.849 245.44 186.926 243.035 186.094 240.39L194.792 237.563Z" fill="#E58A7B"/>
<path d="M191.098 229.228C195.465 230.266 200.367 243.17 200.367 243.17L187.393 254.228C187.393 254.228 178.98 240.161 180.69 235.521C182.457 230.676 185.398 227.872 191.098 229.228Z" fill="#23A455"/>
<path d="M213.659 229.856L218.208 226.049L221.377 230.985L219.04 235.112C219.04 235.112 215.323 238.509 212.029 236.788C210.98 234.359 211.63 231.544 213.659 229.856Z" fill="#E58A7B"/>
<path d="M226.472 226.06L226.13 227.303L218.914 228.511L218.207 226.049L226.472 226.06Z" fill="#E58A7B"/>
<path d="M185.636 423.497L172.617 415.084L174.954 411.025L189.58 420.02L185.636 423.497Z" fill="black"/>
<path d="M163.499 430.199C162.461 430.199 161.105 429.538 160.273 429.082C160.193 429.036 160.159 428.956 160.17 428.876C160.182 428.796 160.239 428.717 160.318 428.694C160.672 428.58 163.761 427.634 164.627 428.375C164.764 428.489 164.924 428.705 164.867 429.059C164.798 429.538 164.582 429.868 164.228 430.05C164.023 430.153 163.772 430.199 163.499 430.199ZM160.934 428.945C162.347 429.663 163.487 429.936 164.035 429.663C164.263 429.549 164.399 429.332 164.445 429.002C164.468 428.819 164.411 428.739 164.342 428.694C163.898 428.306 162.188 428.603 160.934 428.945Z" fill="#263238"/>
<path d="M160.385 429.105C160.328 429.105 160.271 429.082 160.237 429.036C160.18 428.979 160.168 428.9 160.18 428.831C160.214 428.729 160.921 426.255 162.095 425.685C162.403 425.537 162.722 425.525 163.03 425.651C163.52 425.856 163.566 426.221 163.554 426.414C163.474 427.44 161.388 428.854 160.431 429.093C160.419 429.105 160.396 429.105 160.385 429.105ZM162.597 425.993C162.494 425.993 162.391 426.015 162.277 426.072C161.582 426.403 160.989 427.748 160.716 428.558C161.719 428.136 163.087 427.019 163.132 426.392C163.144 426.289 163.121 426.164 162.87 426.05C162.779 426.015 162.676 425.993 162.597 425.993Z" fill="#263238"/>
<path d="M179.788 435.124C178.5 435.124 176.71 433.471 175.73 432.457C175.661 432.388 175.65 432.297 175.695 432.217C175.741 432.138 175.844 432.092 175.912 432.103C176.368 432.16 180.324 432.696 180.894 433.813C180.996 434.03 180.996 434.258 180.871 434.486C180.666 434.851 180.358 435.067 179.97 435.113C179.902 435.113 179.845 435.124 179.788 435.124ZM176.482 432.616C177.918 434.018 179.184 434.794 179.902 434.691C180.153 434.657 180.347 434.52 180.483 434.269C180.54 434.178 180.54 434.087 180.495 434.007C180.198 433.391 178.089 432.867 176.482 432.616Z" fill="#263238"/>
<path d="M176.609 432.571C176.312 432.571 176.05 432.549 175.845 432.514C175.776 432.503 175.708 432.446 175.685 432.378C175.662 432.309 175.674 432.229 175.719 432.172C175.788 432.093 177.327 430.234 178.786 430.109C179.242 430.075 179.63 430.2 179.96 430.474C180.405 430.861 180.382 431.203 180.268 431.42C179.915 432.184 177.942 432.571 176.609 432.571ZM176.312 432.15C177.589 432.218 179.618 431.796 179.892 431.238C179.915 431.192 179.983 431.055 179.687 430.793C179.436 430.588 179.151 430.497 178.832 430.519C177.863 430.622 176.802 431.637 176.312 432.15Z" fill="#263238"/>
<path d="M160.693 427.908L151.026 425.172C150.673 425.07 150.319 425.241 150.171 425.571L146.911 432.913C146.569 433.677 147.047 434.623 147.857 434.828C151.243 435.729 152.93 435.979 157.182 437.188C159.793 437.929 163.543 439.274 167.157 440.3C170.691 441.303 171.968 437.803 170.554 437.051C164.216 433.699 163.714 431.397 161.981 428.843C161.674 428.387 161.206 428.056 160.693 427.908Z" fill="#23A455"/>
<path d="M175.993 431.123L167.74 425.389C167.443 425.183 167.056 425.218 166.805 425.48L161.333 431.362C160.763 431.966 160.9 433.015 161.606 433.483C164.513 435.432 166.018 436.23 169.655 438.749C171.889 440.3 176.347 443.743 179.425 445.874C182.446 447.972 184.794 445.076 183.7 443.914C178.798 438.681 177.726 435.398 176.917 432.422C176.768 431.898 176.438 431.431 175.993 431.123Z" fill="#23A455"/>
<path d="M169.301 420.52L154.424 413.122L155.963 409.086L171.854 416.884L169.301 420.52Z" fill="black"/>
<path d="M149.955 281.075L148.701 284.324C148.575 284.575 148.872 284.837 149.294 284.837H187.005C187.335 284.837 187.609 284.678 187.62 284.473L187.951 281.224C187.974 280.996 187.689 280.813 187.335 280.813H150.548C150.285 280.802 150.046 280.916 149.955 281.075Z" fill="#23A455"/>
<path opacity="0.4" d="M149.955 281.075L148.701 284.324C148.575 284.575 148.872 284.837 149.294 284.837H187.005C187.335 284.837 187.609 284.678 187.62 284.473L187.951 281.224C187.974 280.996 187.689 280.813 187.335 280.813H150.548C150.285 280.802 150.046 280.916 149.955 281.075Z" fill="white"/>
<path d="M155.894 285.191H154.913C154.719 285.191 154.571 285.089 154.583 284.963L155.05 280.734C155.061 280.608 155.232 280.506 155.426 280.506H156.407C156.6 280.506 156.749 280.608 156.737 280.734L156.27 284.963C156.258 285.089 156.087 285.191 155.894 285.191Z" fill="#23A455"/>
<path d="M179.15 285.191H178.169C177.975 285.191 177.827 285.089 177.839 284.963L178.306 280.734C178.317 280.608 178.488 280.506 178.682 280.506H179.663C179.856 280.506 180.005 280.608 179.993 280.734L179.526 284.963C179.526 285.089 179.355 285.191 179.15 285.191Z" fill="#23A455"/>
<path d="M155.027 478.249C171.894 478.249 185.568 477.259 185.568 476.038C185.568 474.816 171.894 473.826 155.027 473.826C138.16 473.826 124.486 474.816 124.486 476.038C124.486 477.259 138.16 478.249 155.027 478.249Z" fill="#F5F5F5"/>
<path d="M173.632 472.915C168.228 471.342 162.278 469.324 158.607 467.181C158.504 467.124 158.402 467.078 158.288 467.021V442.591H169.152C170.953 442.591 172.401 441.132 172.401 439.342C172.401 437.541 170.942 436.093 169.152 436.093H158.288V324.578H151.778V436.093H140.914C139.113 436.093 137.665 437.552 137.665 439.342C137.665 441.143 139.124 442.591 140.914 442.591H151.778V467.021C151.676 467.078 151.562 467.124 151.459 467.181C147.777 469.335 141.837 471.353 136.434 472.915C134.655 473.428 135.032 476.039 136.878 476.039H155.027H173.176C175.034 476.039 175.41 473.428 173.632 472.915Z" fill="#E0E0E0"/>
<path d="M175.307 337.085H134.768C131.519 337.085 128.863 334.429 128.863 331.18V319.13C128.863 315.881 131.519 313.225 134.768 313.225H175.307C178.556 313.225 181.212 315.881 181.212 319.13V331.18C181.212 334.429 178.556 337.085 175.307 337.085Z" fill="#23A455"/>
<path d="M134.393 337.084V339.159C134.393 340.869 136.251 342.271 138.531 342.271H171.545C173.825 342.271 175.683 340.869 175.683 339.159V337.084H134.393Z" fill="#23A455"/>
<path opacity="0.3" d="M134.393 337.084V339.159C134.393 340.869 136.251 342.271 138.531 342.271H171.545C173.825 342.271 175.683 340.869 175.683 339.159V337.084H134.393Z" fill="white"/>
</g>
<defs>
<clipPath id="clip0_25_1664">
<rect width="570" height="570" fill="white" transform="translate(0.5 0.5)"/>
</clipPath>
</defs>
</svg>
